<svg xmlns="http://www.w3.org/2000/svg" width="512" height="512" viewBox="0 0 512 512" role="img" aria-label="TONS of GRAM">
  <defs>
    <linearGradient id="bg" x1="64" y1="32" x2="448" y2="480" gradientUnits="userSpaceOnUse">
      <stop offset="0" stop-color="#5AC8FA"/>
      <stop offset="0.52" stop-color="#2AABEE"/>
      <stop offset="1" stop-color="#111827"/>
    </linearGradient>
    <linearGradient id="gem" x1="132" y1="96" x2="380" y2="416" gradientUnits="userSpaceOnUse">
      <stop offset="0" stop-color="#FFFFFF"/>
      <stop offset="0.55" stop-color="#C6E8FF"/>
      <stop offset="1" stop-color="#5AC8FA"/>
    </linearGradient>
    <filter id="shadow" x="-20%" y="-20%" width="140%" height="140%">
      <feDropShadow dx="0" dy="18" stdDeviation="18" flood-color="#06101A" flood-opacity="0.45"/>
    </filter>
  </defs>
  <rect width="512" height="512" rx="112" fill="url(#bg)"/>
  <circle cx="394" cy="108" r="42" fill="#FFFFFF" opacity="0.16"/>
  <circle cx="104" cy="390" r="56" fill="#06101A" opacity="0.18"/>
  <g filter="url(#shadow)">
    <path d="M256 86L381 164L338 356L256 426L174 356L131 164L256 86Z" fill="url(#gem)"/>
    <path d="M131 164H381L312 239H200L131 164Z" fill="#FFFFFF" opacity="0.65"/>
    <path d="M200 239H312L256 426L200 239Z" fill="#2AABEE" opacity="0.45"/>
    <path d="M174 356L200 239L131 164L174 356Z" fill="#06101A" opacity="0.14"/>
    <path d="M338 356L312 239L381 164L338 356Z" fill="#06101A" opacity="0.18"/>
    <path d="M256 86L200 239H312L256 86Z" fill="#FFFFFF" opacity="0.42"/>
  </g>
  <text x="256" y="278" text-anchor="middle" font-family="Arial, Helvetica, sans-serif" font-size="82" font-weight="900" letter-spacing="-4" fill="#06101A">GRAM</text>
  <text x="256" y="334" text-anchor="middle" font-family="Arial, Helvetica, sans-serif" font-size="38" font-weight="800" letter-spacing="3" fill="#06101A" opacity="0.9">LAUNCH</text>
</svg>
